<?xml version="1.0" encoding="UTF-8"?>
<svg id="Calque_2" data-name="Calque 2" xmlns="http://www.w3.org/2000/svg" viewBox="0 0 46.13 40.89">
  <defs>
    <style>
      .cls-1 {
        fill: #fff;
        fill-rule: evenodd;
      }
    </style>
  </defs>
  <g id="Mode_Isolation" data-name="Mode Isolation">
    <g>
      <g>
        <path class="cls-1" d="m6.58,36.81c-.1-.54-.25-.96-.72-1.33-1.08-.85-1.12-2.38-.21-3.43.1-.11.16-.33.12-.47-.24-1.09.12-2.09,1.06-2.66.25-.16.25-.33.24-.56-.03-1.49,1.04-2.57,2.49-2.54,1.46.03,2.59,1.48,2.24,2.91-.07.27-.06.46.16.67.39.39.53.83.61,1.62.65.09,1.31.19,1.96.28.26-.62.36-.69,1.06-.69,5.98,0,11.96,0,17.94,0,.25,0,.43-.08.63-.24.27-.22.65-.42.97-.43,3.21-.03,6.42-.02,9.63-.02.74,0,1.33.59,1.33,1.33,0,.94.01,1.88,0,2.82,0,.72-.59,1.31-1.31,1.32-3.24,0-6.48.01-9.72-.01-.3,0-.65-.17-.87-.38-.25-.24-.47-.31-.79-.29-.32.02-.65,0-1,0v-1.35h1.32v-1.37h-17.67c-.08,1.63,1.73,3.92,3.39,4.36,0-.52-.1-1.07.02-1.58.41-1.85,2.45-2.69,4.06-1.72.23.14.37.13.6,0,.94-.54,1.89-.53,2.85,0,.13.07.36.11.47.04,1.18-.64,2.42-.56,3.34.26.91.81,1.15,2.01.65,3.24-.02.04-.03.08-.05.16.13,0,.25.02.37.02,1.34,0,2.68,0,4.02,0,1.2,0,2.09.89,2.09,2.07,0,1.15-.9,2.04-2.08,2.04-9.54,0-19.09,0-28.64,0-1.11,0-1.97-.68-2.14-1.7-.17-1.01.38-1.92,1.4-2.32.04-.02.08-.03.14-.06Zm5.15,2.71h.39c7.82,0,15.63,0,23.45,0,.09,0,.17,0,.26,0,.4-.04.7-.32.7-.68,0-.35-.29-.65-.69-.69-.11-.01-.23,0-.34,0H11.93c-.07.48-.13.9-.2,1.37Zm23.45-5.51h9.54v-2.69h-9.54v2.69Zm-17.92,2.77c-.07-.09-.08-.12-.11-.15-1.18-.96-1.93-2.18-2.35-3.63-.03-.12-.2-.27-.33-.29-.52-.1-1.04-.18-1.56-.22-1.3-.11-2.33.78-2.4,2.04-.06,1.18.91,2.22,2.16,2.24,1.51.03,3.02,0,4.6,0Zm-7.88-3.76s.14-.12.24-.21c.36-.38.68-.81,1.09-1.13.64-.5.63-1.22-.1-1.63-.61-.36-.69-.64-.31-1.23.31-.49.25-.99-.15-1.35-.37-.34-.9-.36-1.29-.05-.42.33-.51.83-.24,1.34.36.68.16,1.06-.6,1.19-.81.13-1.17.92-.74,1.61.37.6.3.89-.3,1.24-.43.25-.65.68-.55,1.1.11.49.53.84,1,.84.52,0,.93-.39,1.02-.97.09-.55.3-.75.94-.72Zm19.62,3.75c.73,0,1.36-.64,1.36-1.37,0-.73-.64-1.36-1.37-1.36-.72,0-1.37.65-1.36,1.37,0,.73.64,1.36,1.37,1.36Zm-19.89-1.29c-.38.2-.81.43-1.31.69.22.18.4.38.62.52.49.3.6.66.29,1.13-.08.12-.15.24-.2.38-.15.43,0,.79.32,1.07.32.28.69.32,1.08.13.36-.17.64-.6.57-.97-.08-.45-.16-.92-.36-1.32-.29-.57-.68-1.1-1.02-1.62Zm13.81,1.01c0-.66-.06-1.24.02-1.8.05-.35-.06-.46-.32-.55-.62-.23-1.29,0-1.63.57-.34.56-.23,1.28.25,1.71.52.46,1.16.48,1.69.08Zm3.51-2.11c-.6-.47-1.28-.45-1.79.04-.48.46-.56,1.19-.18,1.75.37.55,1.1.75,1.69.44.11-.06.26-.24.23-.32-.2-.65-.16-1.29.04-1.92Zm-19.4,3.79c-.48.13-.71.43-.61.8.1.38.42.57.79.48-.06-.42-.12-.84-.18-1.28Z"/>
        <path class="cls-1" d="m42,13.49v-.66h-20.53v16.39h-1.36v-11.62c-.27,0-.49,0-.72,0-1.16-.01-2.04-.92-2.04-2.08,0-1.13.9-2.02,2.04-2.03.21,0,.43,0,.67,0,.05-.39.11-.68-.38-.87-.73-.28-1.09-1.11-.94-1.88.16-.78.85-1.36,1.65-1.36,7.56,0,15.13,0,22.69,0,.79,0,1.45.54,1.64,1.31.18.75-.17,1.61-.88,1.9-.46.19-.51.45-.42.89.23,0,.46,0,.7,0,1.11.01,2,.92,2,2.03,0,1.15-.87,2.06-1.99,2.08-.23,0-.46,0-.73,0v10.93h-1.37v-10.93c-.71,0-1.39,0-2.07,0-1.06,0-1.96-.8-2.05-1.81-.1-1.1.58-2.09,1.64-2.26.57-.09,1.17-.03,1.75-.04.22,0,.45,0,.69,0Zm-10.26-2.74h-10.91c-.11,0-.25-.04-.34,0-.14.08-.26.21-.38.32.12.12.23.25.36.34.07.04.2,0,.29,0h21.95c.09,0,.19.03.25,0,.15-.1.27-.23.4-.35-.13-.11-.24-.24-.39-.32-.09-.05-.22,0-.34,0h-10.91Zm10.32,4.11c-.65,0-1.31,0-1.97,0-.49,0-.82.29-.81.69,0,.38.32.67.79.68,1.3,0,2.59,0,3.89,0,.46,0,.78-.29.79-.67,0-.4-.32-.69-.81-.7-.63,0-1.25,0-1.88,0Zm-21.98,1.36v-1.36c-.45.02-.94-.14-1.21.33-.11.18-.11.52,0,.7.27.47.76.32,1.21.32Z"/>
        <path class="cls-1" d="m26.09,6.8c-.37.36-.68.67-1.06,1.05-.39-.49-.86-.94-1.14-1.48-.51-1.01-.32-2,.41-2.86.62-.74.62-1.34-.07-2.02-.17-.17-.38-.3-.58-.46.4-.39.71-.7,1.04-1.02.62.57,1.24,1.12,1.4,2.02.16.85-.06,1.58-.6,2.23-.66.8-.65,1.36.07,2.08.16.16.34.3.51.46Z"/>
        <path class="cls-1" d="m30.52,1.07c.4-.42.71-.74,1.02-1.07.63.58,1.25,1.14,1.41,2.04.15.83-.06,1.55-.58,2.19-.7.85-.68,1.38.09,2.15.14.14.3.26.48.4-.39.35-.72.65-1.06.96-.57-.53-1.19-1.08-1.35-1.98-.15-.83.06-1.55.58-2.19.69-.85.69-1.38-.09-2.14-.15-.15-.35-.25-.5-.36Z"/>
        <path class="cls-1" d="m37.42,1.02c.35-.37.66-.69.97-1.02.63.58,1.25,1.14,1.41,2.04.15.83-.06,1.55-.58,2.19-.69.85-.68,1.38.1,2.15.14.14.3.26.48.4-.39.35-.72.65-1.06.97-.57-.53-1.19-1.09-1.36-1.99-.15-.83.06-1.55.58-2.19.7-.85.68-1.38-.09-2.15-.14-.14-.29-.27-.45-.4Z"/>
      </g>
      <g>
        <path class="cls-1" d="m8.87,7.01c.15.11.18.26.17.44,0,.18,0,.36,0,.53,0,.27-.11.37-.37.37h-.93v.99c2.02.37,3.59,1.42,4.66,3.17.79,1.3,1.08,2.73.9,4.25-.39,3.37-3.37,6.05-6.99,5.85-3.33-.18-5.93-2.75-6.27-5.94-.38-3.53,2.02-6.71,5.57-7.32v-1h-1.07c-.32,0-.41-.09-.42-.42,0-.16,0-.33,0-.49,0-.18.03-.33.18-.44h4.57Zm3.18,8.93c0-2.96-2.39-5.37-5.37-5.38-2.96,0-5.38,2.4-5.38,5.38,0,2.96,2.39,5.36,5.37,5.38,2.95.02,5.38-2.41,5.38-5.38Z"/>
        <path class="cls-1" d="m.81,11.6c-.52-.61-.48-1.46.08-1.96.57-.51,1.43-.47,1.95.09-.67.62-1.34,1.24-2.03,1.87Z"/>
        <path class="cls-1" d="m11.41,15.93h-4.82v-4.81c2.28-.08,4.8,1.84,4.82,4.81Z"/>
        <path class="cls-1" d="m3.54,15.27v1.06h-1.42v-1.06h1.42Z"/>
        <path class="cls-1" d="m6.6,19.15h.85v1.42h-.85v-1.42Z"/>
        <path class="cls-1" d="m3.59,14.13c-.32-.19-.63-.36-.95-.55.07-.13.14-.25.22-.38.32.18.63.36.95.55-.07.13-.14.25-.22.38Z"/>
        <path class="cls-1" d="m2.86,18.39c-.07-.13-.14-.24-.22-.38.31-.18.62-.36.95-.55.07.12.14.24.22.38-.32.18-.63.36-.95.55Z"/>
        <path class="cls-1" d="m5.24,12.49c-.14.08-.25.15-.38.22-.18-.31-.36-.62-.55-.94.12-.07.24-.14.37-.22.19.31.37.62.55.94Z"/>
        <path class="cls-1" d="m5.24,19.11c-.19.32-.37.63-.55.94-.13-.07-.24-.14-.38-.22.19-.32.36-.62.55-.94.13.07.24.14.38.22Z"/>
        <path class="cls-1" d="m8.58,19.11c.13-.08.25-.14.38-.22.18.3.35.6.53.91-.12.08-.24.16-.36.25-.19-.32-.36-.62-.55-.94Z"/>
        <path class="cls-1" d="m10.23,17.46c.26.15.51.29.77.44-.07.13-.13.25-.2.39-.27-.15-.52-.3-.79-.45.07-.13.14-.25.22-.38Z"/>
      </g>
    </g>
  </g>
</svg>