<?xml version="1.0" encoding="UTF-8"?>
<svg id="Calque_2" data-name="Calque 2" xmlns="http://www.w3.org/2000/svg" viewBox="0 0 50.44 50.44">
  <defs>
    <style>
      .cls-1, .cls-2 {
        fill: #fff;
      }

      .cls-2 {
        fill-rule: evenodd;
      }
    </style>
  </defs>
  <g id="Mode_Isolation" data-name="Mode Isolation">
    <g>
      <path class="cls-2" d="m50.44,20.3c-.29.7-.6,1.4-.88,2.11-1.52,3.89-3.02,7.78-4.54,11.67-.34.88-.77,1.07-1.64.74-.65-.25-1.3-.5-2.01-.78,0,.47,0,.86,0,1.25-.02.59-.43.98-1.01.97-.55,0-.94-.4-.96-.97,0-.15,0-.29,0-.44,0-9.88,0-19.77,0-29.65,0-1.53-.75-2.66-2.07-3.06-.33-.1-.68-.16-1.01-.16-10.03,0-20.06,0-30.09,0-.08,0-.16,0-.28.01v46.49h.5c9.9,0,19.8,0,29.7,0,2.02,0,3.26-1.24,3.26-3.25,0-.39-.02-.79,0-1.18.03-.49.46-.87.95-.88.47,0,.97.33.99.79.04,1.17.15,2.36-.36,3.49-.69,1.54-1.86,2.51-3.49,2.9-.09.02-.18.07-.26.1H0V0h37.24c.09.04.17.08.26.1,2.06.54,3.41,1.83,3.77,3.94.18,1.09.1,2.22.1,3.34,0,.36.12.5.45.62,1.83.7,3.66,1.42,5.49,2.13.87.34,1.05.78.72,1.65-.69,1.77-1.37,3.54-2.06,5.31-.04.11-.06.23-.1.36,1.24.48,2.45.93,3.64,1.43.35.15.63.48.94.72v.69ZM3.9,48.45V2.01h-1.91v46.44h1.91Zm37.52-30.58c-.03.1-.04.13-.04.16,0,4.53,0,9.06,0,13.59,0,.13.14.32.26.38.57.25,1.16.46,1.78.69,1.58-4.06,3.15-8.11,4.74-12.2-2.26-.88-4.48-1.74-6.74-2.62Zm4.47-6.15c-1.52-.59-2.99-1.16-4.52-1.75,0,1.9,0,3.7,0,5.51,0,.1.08.26.17.29.78.32,1.57.62,2.41.95.65-1.68,1.29-3.31,1.94-4.99Z"/>
      <g>
        <path class="cls-2" d="m25.56,14.48c.86-.63,1.81-1.01,2.91-1.01,2.22.02,4.11,1.6,4.5,3.79.38,2.13-.87,4.33-2.93,5.05-.48.17-.57.38-.57.83.02,2.51.01,5.02,0,7.53,0,1.02-.3,1.31-1.32,1.31h-11.03c-.89,0-1.25-.35-1.25-1.25,0-2.56,0-5.12,0-7.68,0-.38-.08-.56-.47-.7-1.74-.61-2.83-1.85-3.08-3.67-.27-1.95.47-3.53,2.16-4.56,1.64-.99,3.3-.9,4.92.12.1.06.19.13.29.19.01,0,.03.01.06.02,1.92-1.34,3.85-1.35,5.8.01Zm1.91,8.17c-.16,0-.27-.01-.39-.02-.77-.01-1.2-.37-1.2-1,0-.63.42-.98,1.2-1,.57-.01,1.15.02,1.72-.05,1.65-.19,2.65-1.88,2.08-3.43-.69-1.87-3.04-2.27-4.4-.76-.62.69-1.17.72-1.74.11-1.29-1.41-2.87-1.41-4.16,0-.53.58-1.11.58-1.64,0-.1-.11-.19-.22-.3-.33-.8-.78-2.01-.94-3-.41-.96.51-1.52,1.64-1.33,2.69.2,1.13,1.08,2.01,2.22,2.12.68.07,1.38.03,2.06.07.56.03.92.43.93.95,0,.54-.38.97-.93,1.02-.2.02-.41,0-.63,0v7.37h9.53v-7.35Z"/>
        <path class="cls-1" d="m28.48,35.13h-11.63c-.55,0-1-.45-1-1s.45-1,1-1h11.63c.55,0,1,.45,1,1s-.45,1-1,1Z"/>
      </g>
      <path class="cls-2" d="m41.37,39.73c0,.57-.43.98-1.01.97-.57-.01-.98-.45-.96-1.02.02-.53.45-.96.99-.96.55,0,.99.45.98,1.01Z"/>
    </g>
  </g>
</svg>