<?xml version="1.0" encoding="UTF-8"?>
<svg id="Calque_2" data-name="Calque 2" xmlns="http://www.w3.org/2000/svg" viewBox="0 0 51.8 51.57">
  <defs>
    <style>
      .cls-1 {
        fill: #fff;
        fill-rule: evenodd;
      }
    </style>
  </defs>
  <g id="Mode_Isolation" data-name="Mode Isolation">
    <g>
      <path class="cls-1" d="m42.13,51.57c-.95-.68-2.04-1.22-2.81-2.06-6.53-7.16-12.99-14.38-19.47-21.58-.77-.85-1.5-1.75-2.29-2.57-.22-.23-.69-.46-.93-.38-4.14,1.44-7.42-.19-10.34-2.92C3.12,19.11.73,15.67,0,11.28v-2.53c.32-1.06.53-2.17.99-3.16C3,1.31,7.9-.68,12.6,1.23c5.86,2.38,9.86,6.67,11.42,12.91.7,2.77-.03,5.31-2.03,7.44-.49.52-1.05.94-1.68.36-.64-.59-.23-1.14.27-1.66,1.63-1.68,2.21-3.74,1.54-5.94-1.75-5.81-5.41-9.98-11.34-11.61C5.79,1.36,1.26,5.48,1.94,10.65c.75,5.72,4.21,9.64,9.11,12.36,1.62.9,3.44.85,5.11.04,1.13-.54,1.76-.22,2.54.66,7.16,8.05,14.36,16.07,21.59,24.06.64.7,1.51,1.29,2.38,1.64.46.18,1.4-.09,1.71-.48.3-.39.27-1.27.03-1.79-.42-.93-1-1.82-1.67-2.59-5.32-6.14-10.68-12.26-16.03-18.38-.78-.89-1.59-1.76-2.39-2.64-.46-.51-.69-1.07-.1-1.6.57-.51,1.07-.19,1.48.29,6.17,7.03,12.35,14.06,18.5,21.11.6.69,1.11,1.47,1.56,2.27,1.63,2.87.98,4.74-2.02,5.98h-1.61Z"/>
      <path class="cls-1" d="m42.13,0c.72.71.62,1.33-.06,2.06-2.39,2.54-4.77,5.08-7.08,7.69-.83.93-1.62,1.98-2.09,3.12-.35.83-.13,1.9-.19,2.86-.03.46.04,1.05-.21,1.34-1.13,1.34-2.36,2.6-3.6,3.94-.43-.48-.81-.9-1.27-1.42.85-.92,1.74-1.81,2.53-2.79.29-.35.49-.93.44-1.37-.22-1.91.3-3.63,1.48-5.04,2.22-2.68,4.59-5.24,6.91-7.83.79-.88,1.64-1.71,2.46-2.56h.69Z"/>
      <path class="cls-1" d="m51.8,9.9c-2.47,2.67-4.94,5.34-7.42,8.01-1.61,1.73-3.35,3.27-5.74,3.83-1.87.44-3.48-.13-4.93-1.29-.52-.41-.79-1-.25-1.45.29-.24,1.09-.27,1.38-.04,1.88,1.46,3.71,1.23,5.5-.06.93-.67,1.79-1.44,2.58-2.27,2.35-2.48,4.65-5,6.95-7.52.71-.77,1.33-.84,1.93.09v.69Z"/>
      <path class="cls-1" d="m41.01,15.01c-.87,0-1.32-.64-1.04-1.26.12-.27.34-.51.54-.73,2.07-2.25,4.15-4.49,6.22-6.75.49-.53,1.11-.95,1.62-.3.23.29.06,1.2-.25,1.55-2.06,2.36-4.21,4.65-6.34,6.95-.24.26-.59.43-.76.55Z"/>
      <path class="cls-1" d="m38.04,12.24c-.9-.01-1.34-.64-1.06-1.26.11-.24.29-.45.47-.64,2.07-2.25,4.15-4.5,6.22-6.75.5-.54,1.06-1.06,1.73-.39.6.6.14,1.17-.33,1.68-2.08,2.24-4.14,4.5-6.23,6.74-.27.29-.63.49-.81.63Z"/>
      <path class="cls-1" d="m33.12,25.68c-.42-.49-.79-.92-1.18-1.36.58-.61.98-1.53,1.98-.85.68.47.47,1.06-.8,2.21Z"/>
      <path class="cls-1" d="m21.94,35.15c.42.49.79.92,1.24,1.44-1.03,1.12-2.03,2.21-3.03,3.3-2.8,3.04-5.61,6.09-8.41,9.14-.88.96-1.9,1.67-3.26,1.69-1.37.02-3.61-1.61-4.23-3.11-.64-1.54.04-2.71,1.08-3.82,3.86-4.15,7.7-8.33,11.54-12.5.26-.28.52-.55.86-.9.43.48.83.92,1.27,1.4-2.8,3.05-5.54,6.04-8.29,9.02-1.22,1.33-2.45,2.64-3.66,3.97-1.16,1.27-1.21,2.34-.18,3.29,1.13,1.03,2.34.93,3.51-.34,2.94-3.18,5.87-6.37,8.8-9.56.91-.98,1.82-1.96,2.79-3.01Z"/>
    </g>
  </g>
</svg>