<?xml version="1.0" encoding="UTF-8"?>
<svg id="Calque_2" data-name="Calque 2" xmlns="http://www.w3.org/2000/svg" viewBox="0 0 48.86 48.86">
  <defs>
    <style>
      .cls-1 {
        fill: #fff;
        fill-rule: evenodd;
      }
    </style>
  </defs>
  <g id="Mode_Isolation" data-name="Mode Isolation">
    <g>
      <path class="cls-1" d="m3.44,0c.87.24,1.52.8,2.14,1.44,1.14,1.18,2.31,2.33,3.48,3.47.13.12.36.24.52.21,1.86-.33,3.38.24,4.54,1.63.6-.22,1.15-.52,1.74-.62,1.07-.18,1.99.23,2.75,1,1.98,2,3.98,3.98,5.97,5.97.12.12.21.28.32.45,1.13-1.24,2.37-1.49,3.83-.87.79-.96,1.58-1.93,2.37-2.91,1.98-2.43,3.97-4.84,5.92-7.3,1.4-1.77,3.19-2.39,5.32-1.87,2.24.55,3.65,2.03,4.12,4.28.43,2.02-.18,3.72-1.82,5.04-3.4,2.74-6.79,5.51-10.18,8.27-.21.17-.28.3-.23.59.19,1.13-.17,2.1-1.13,2.92.53.5,1.03.98,1.53,1.46.14.13.28.27.38.42.27.38.22.85-.09,1.18-.33.35-.81.4-1.21.13-.14-.1-.27-.23-.39-.35-5.32-5.32-10.64-10.63-15.96-15.96-.82-.82-1.42-.82-2.24,0-2.2,2.2-4.41,4.41-6.61,6.61-.77.78-.78,1.4-.02,2.17,7.68,7.68,15.36,15.36,23.04,23.04.75.75,1.38.75,2.14,0,2.23-2.22,4.45-4.45,6.68-6.68.74-.74.74-1.39,0-2.13-.45-.45-.9-.9-1.35-1.35-.49-.5-.55-1.06-.14-1.47.41-.42,1-.37,1.51.14.41.4.81.81,1.22,1.21,1.46,1.45,1.62,2.82.49,4.59.85.71,1.47,1.58,1.64,2.69.08.56.07,1.14.01,1.7-.03.32.02.53.25.75,1.35,1.33,2.7,2.65,4.01,4.02,1.53,1.59.93,4.13-1.12,4.81-1.17.39-2.2.09-3.06-.76-1.31-1.3-2.62-2.6-3.91-3.92-.25-.25-.47-.32-.83-.26-1.56.25-2.92-.2-4.04-1.34-.1-.1-.19-.21-.23-.25-.61.24-1.16.55-1.75.65-1.07.2-2-.17-2.77-.94-1.93-1.94-3.87-3.87-5.8-5.8-.12-.12-.22-.28-.37-.46-.23.37-.39.65-.57.93-1.33,2.15-2.68,4.29-4.6,5.99-1.52,1.34-3.2,2.42-5.16,2.97-2.84.81-5.55.45-8.06-1.12-2.92-1.83-4.93-4.36-5.6-7.82-.04-.23-.1-.46-.14-.69v-1.91c.03-.07.07-.14.08-.22.2-1.72.84-3.28,1.75-4.74,1.53-2.47,3.69-4.25,6.2-5.66.79-.44,1.57-.88,2.39-1.34-.13-.13-.23-.25-.34-.36-1.03-1.03-2.08-2.06-3.1-3.1-1.02-1.04-1.24-2.49-.57-3.73.12-.23.28-.44.42-.66-1.47-1.22-2.04-2.74-1.7-4.6.03-.16-.09-.39-.22-.52-1.15-1.17-2.3-2.33-3.47-3.47-.64-.62-1.2-1.26-1.44-2.13v-1.05c.19-.4.34-.82.57-1.18C.99.54,1.67.23,2.39,0h1.05Zm11.66,26.79c-1.03.81-2.08,1.61-3.11,2.43-2.31,1.84-4.37,3.94-6.04,6.39-.81,1.19-1.51,2.43-1.68,3.9-.17,1.47.74,2.35,2.2,2.15,1.46-.2,2.7-.9,3.89-1.71,2.47-1.68,4.54-3.78,6.44-6.06.83-1,1.64-2.01,2.43-2.97-1.39-1.39-2.74-2.74-4.13-4.13Zm18-9.93c.14-.11.27-.21.41-.32,3.32-2.7,6.62-5.4,9.95-8.08,1.12-.9,1.44-2.03,1.09-3.35-.38-1.45-1.35-2.36-2.82-2.66-1.34-.28-2.4.17-3.26,1.27-1.69,2.15-3.44,4.25-5.16,6.37-1.05,1.29-2.1,2.59-3.14,3.87.98.97,1.94,1.93,2.93,2.91Zm-12.5,15.4c-.17.21-.33.42-.51.63-1.25,1.47-2.44,2.98-3.75,4.38-1.91,2.05-4.01,3.91-6.51,5.23-.6.31-1.23.56-1.9.86.19.08.34.16.49.21,1.34.46,2.7.56,4.09.27,2.65-.55,4.79-2,6.46-4.05,1.24-1.52,2.24-3.23,3.35-4.86.14-.21.25-.43.35-.62-.7-.7-1.36-1.35-2.07-2.05Zm-18.08,5.65c.63-1.13,1.17-2.3,1.88-3.37,1.76-2.66,4-4.89,6.49-6.87.96-.76,1.92-1.51,2.83-2.23-.65-.65-1.28-1.28-1.95-1.95-.6.32-1.27.66-1.92,1.02-1.96,1.1-3.87,2.27-5.32,4.05-1.41,1.72-2.4,3.62-2.58,5.88-.09,1.22.13,2.39.56,3.47ZM12.75,8.23c-.73-1.36-2.57-1.74-3.79-.74-.54.44-1.04.94-1.48,1.48-1,1.22-.59,3.13.75,3.77,1.51-1.51,3.01-3.01,4.52-4.52Zm23.4,32.49c.76,1.26,2.46,1.63,3.64.72.61-.47,1.17-1.04,1.64-1.64.92-1.19.49-3.05-.74-3.62-1.51,1.51-3.01,3.01-4.54,4.55ZM7.5,6.13c-1.3-1.31-2.6-2.65-3.94-3.96-.4-.39-.99-.34-1.37.05-.38.39-.41.96,0,1.37,1.3,1.32,2.63,2.62,3.95,3.93.46-.47.91-.93,1.37-1.4Zm33.8,36.6c1.27,1.27,2.53,2.53,3.79,3.79.53.53,1.11.57,1.55.14.44-.44.4-1.02-.12-1.55-.97-.98-1.96-1.95-2.93-2.93-.29-.29-.55-.61-.82-.92-.53.53-.98.98-1.47,1.47Zm-14.95-27.81c1.75,1.74,3.47,3.47,5.22,5.19.08.08.36.06.46-.02.44-.35.46-1.04.03-1.48-1.33-1.35-2.66-2.69-4.01-4.01-.56-.54-1.26-.41-1.7.32Z"/>
      <path class="cls-1" d="m2.39,0C1.67.23.99.54.57,1.2c-.23.37-.38.79-.57,1.18V0h2.39Z"/>
      <path class="cls-1" d="m36.9,25.75c.53,0,.96.46.94.99-.02.51-.46.93-.97.92-.53-.02-.95-.47-.93-1,.02-.52.44-.92.96-.91Z"/>
    </g>
  </g>
</svg>