<?xml version="1.0" encoding="UTF-8"?>
<svg id="Calque_2" data-name="Calque 2" xmlns="http://www.w3.org/2000/svg" viewBox="0 0 51.24 48.75">
  <defs>
    <style>
      .cls-1 {
        fill: #fff;
        fill-rule: evenodd;
      }
    </style>
  </defs>
  <g id="Mode_Isolation" data-name="Mode Isolation">
    <g>
      <path class="cls-1" d="m35.65,30.96c.49,1.35.9,2.67.86,4.08-.05,1.84-1.03,2.9-2.78,3.41-1.58.45-3.1,1.11-4.65,1.69-1.49.56-2.99,1.13-4.48,1.69-.41.15-.86.17-1.13-.19-.19-.26-.29-.65-.27-.97.03-.46.44-.64.84-.79,1.69-.64,3.38-1.28,5.07-1.92.2-.07.39-.16.54-.22-7.35-4.14-12.64-10.13-15.97-17.88-.21.41-.45.87-.69,1.32-3.48,6.79-6.96,13.58-10.46,20.37-.73,1.41-.77,2.78.3,4.02.84.97,1.96,1.44,3.21,1.04,1.94-.62,3.83-1.38,5.74-2.09,1.48-.55,2.95-1.12,4.43-1.66.85-.31,1.57.29,1.41,1.12-.09.46-.44.67-.83.82-1.99.75-3.98,1.51-5.97,2.25-1.4.52-2.77,1.1-4.2,1.52-3.08.92-6.42-1.51-6.62-4.72-.07-1.13.19-2.17.7-3.18,4.13-8.04,8.26-16.07,12.38-24.11.16-.31.29-.64.41-.98.48-1.45,1.91-2.35,3.44-2.22,1.24.11,2.39.47,3.51,1.01.22.11.44.2.69.32,1.48-2.14,2.58-4.39,2.59-7.05,0-2.45-1.56-4.67-3.9-5.43-1.88-.62-3.84.59-4.51,2.35-.24.63.11,1.37.67,1.63.56.27,1.25.07,1.65-.48.08-.11.15-.24.24-.35.35-.46.85-.58,1.32-.32.46.26.63.83.41,1.34-.7,1.57-2.62,2.35-4.27,1.72-1.6-.6-2.49-2.46-1.96-4.11,1-3.12,5-5.19,8.29-3.18,2.05,1.25,3.48,2.91,3.95,5.29.39,1.99.1,3.94-.67,5.79-.55,1.32-1.26,2.57-1.9,3.87,1.27,1.01,2.62,2.1,4.08,3.27.55-.88,1.2-1.73,1.64-2.68.52-1.14.87-2.35,1.26-3.55.14-.44.33-.79.81-.88.77-.13,1.32.47,1.17,1.28-.48,2.5-1.55,4.74-3.11,6.75-.12.15-.24.31-.4.51,2.46,2.61,4.65,5.41,6.31,8.59,1.02-.41,1.99-.84,2.99-1.18,2.45-.82,4.96-1.21,7.55-.79,2.84.46,5.06,2.11,5.77,4.96.81,3.24-1.55,6.89-4.78,7.38-1.71.25-3.42-.91-3.87-2.63-.43-1.65.58-3.62,2.15-4.18.49-.18.99,0,1.23.45.23.41.13.94-.25,1.25-.12.1-.27.17-.4.26-.75.49-1.02,1.37-.62,2.08.4.71,1.3.99,2.09.61,1.63-.79,2.58-2.11,2.56-3.91-.02-1.82-1.01-3.1-2.68-3.82-1.47-.63-3.02-.67-4.56-.51-2.2.23-4.29.89-6.3,1.96Zm-15.83-14.67c-1.16-.52-2.18-.99-3.35-.87-.62.06-.96.33-1.06.93-.06.33-.07.67-.05,1,.09,1.46.64,2.8,1.27,4.09,1.65,3.39,3.97,6.31,6.62,8.97,1.99,2,4.13,3.81,6.68,5.07.83.41,1.74.71,2.64.93,1.11.27,1.82-.24,1.9-1.33.08-1.04-.24-2.01-.7-3.04-.64.58-1.2,1.22-1.78,1.85-.43.46-1,.51-1.43.15-.4-.33-.47-.91-.14-1.39.22-.32.47-.63.75-.9.59-.56,1.21-1.09,1.84-1.65-1.54-3.04-3.63-5.69-5.99-8.19-.25.21-.45.41-.69.56-1.13.69-2.26,1.4-3.42,2.04-.47.26-.99,0-1.21-.45-.25-.48-.12-.99.36-1.3.22-.15.47-.24.7-.38.94-.59,1.88-1.18,2.97-1.86-1.46-1.15-2.77-2.2-4.2-3.33-.24.31-.38.57-.6.76-.56.49-1.13.98-1.75,1.39-.62.41-1.38.06-1.53-.66-.1-.48.16-.81.52-1.09.51-.4,1.02-.81,1.62-1.29Z"/>
      <path class="cls-1" d="m40.14,1.71c-.06.88-.15,1.77-.17,2.66,0,.29.1.63.28.85.6.75,1.27,1.44,1.89,2.17.69.81.44,1.59-.59,1.87-.92.25-1.86.46-2.77.74-.25.08-.53.29-.67.51-.52.8-.99,1.64-1.48,2.46-.55.9-1.36.92-1.93.04-.54-.83-1.05-1.69-1.61-2.51-.12-.18-.36-.34-.58-.4-.96-.24-1.93-.44-2.9-.66-.98-.22-1.27-1.01-.65-1.79.58-.74,1.18-1.47,1.8-2.18.25-.29.38-.57.33-.96-.11-.92-.17-1.84-.28-2.75-.13-1.06.56-1.63,1.56-1.25.86.33,1.72.67,2.57,1.03.37.16.69.16,1.06,0,.79-.37,1.59-.7,2.39-1.04,1.2-.51,1.8-.09,1.76,1.21Zm-2.12,1.16c-.64.27-1.23.5-1.8.78-.49.23-.95.23-1.43.02-.58-.24-1.16-.46-1.81-.72.06.69.07,1.3.17,1.89.1.58-.06,1.04-.44,1.46-.41.46-.78.94-1.21,1.48.65.15,1.21.3,1.79.4.6.1,1.04.38,1.34.92.3.53.65,1.03,1.01,1.59.37-.63.71-1.17,1.02-1.72.24-.43.57-.7,1.06-.81.64-.14,1.26-.33,1.96-.52-.5-.57-.98-1.07-1.39-1.62-.19-.26-.33-.63-.34-.96-.02-.71.05-1.41.09-2.2Z"/>
      <path class="cls-1" d="m10.17,38.57c.06-.66.14-1.37.17-2.08,0-.22-.07-.49-.2-.66-.46-.59-.96-1.14-1.43-1.72-.6-.74-.35-1.5.57-1.75.65-.18,1.3-.35,1.96-.47.41-.07.65-.27.85-.62.33-.59.69-1.16,1.06-1.72.5-.76,1.32-.77,1.82,0,.4.61.75,1.25,1.16,1.85.14.21.4.4.64.47.64.2,1.31.31,1.96.47,1.04.26,1.3,1.04.62,1.87-.44.53-.92,1.04-1.33,1.59-.15.2-.24.5-.24.76.02.64.08,1.28.17,1.91.16,1.08-.73,1.73-1.67,1.23-.57-.31-1.2-.54-1.82-.75-.24-.08-.56-.09-.8,0-.67.23-1.31.54-1.97.8-.91.34-1.55-.13-1.52-1.16Zm1.1-4.59c1.06.89,1.39,1.95,1.04,3.28,1.16-.73,2.28-.74,3.47,0-.38-1.35.04-2.39,1.05-3.3-1.41-.06-2.27-.78-2.78-2.2-.51,1.41-1.37,2.13-2.78,2.21Z"/>
      <path class="cls-1" d="m47.87,12.59c.8.06,1.6.1,2.39.18.58.06.92.49.9,1.06-.03.52-.41.93-.97.94-.48,0-.96-.07-1.43-.09-5.49-.25-10.11,1.69-13.92,5.62-.47.48-.92.63-1.36.42-.63-.3-.79-1.09-.23-1.66.85-.86,1.72-1.71,2.67-2.44,2.99-2.29,6.39-3.57,10.14-3.93.6-.06,1.21,0,1.81,0,0-.03,0-.06,0-.09Z"/>
      <path class="cls-1" d="m44.11,25.44c-2.1,0-3.9-1.77-3.93-3.9-.03-2.11,1.83-3.97,3.94-3.94,2.13.03,3.91,1.82,3.9,3.93-.01,2.12-1.8,3.91-3.92,3.92Zm1.88-3.91c.01-1.01-.82-1.87-1.85-1.9-1.03-.03-1.91.83-1.93,1.87,0,1.01.82,1.87,1.84,1.9,1.02.03,1.91-.84,1.93-1.87Z"/>
      <path class="cls-1" d="m20.06,41.47c.58,0,1.01.42,1.01,1,0,.54-.44.99-.97,1-.53.01-1.02-.48-1.02-1.02,0-.54.44-.97.98-.98Z"/>
    </g>
  </g>
</svg>