<?xml version="1.0" encoding="UTF-8"?>
<svg id="Calque_2" data-name="Calque 2" xmlns="http://www.w3.org/2000/svg" viewBox="0 0 31.47 37.75">
  <defs>
    <style>
      .cls-1 {
        fill: #fff;
      }
    </style>
  </defs>
  <g id="Mode_Isolation" data-name="Mode Isolation">
    <g>
      <g>
        <path class="cls-1" d="m15.52,0c.58.22,1.06.54,1.33,1.13.03.07.17.12.27.12.37.01.73,0,1.12,0v1.26c-.37,0-.72-.02-1.07,0-.13,0-.3.1-.36.21-.38.67-.94,1.06-1.7,1.03-1.07-.04-2.02.23-2.93.79-.81.5-1.74.53-2.72.47-.06-.82,0-1.62.35-2.37.65-1.41,1.73-2.29,3.26-2.59.06-.01.11-.04.16-.07h2.29Zm-4.7,3.73c.32-.13.6-.2.83-.35,1.03-.65,2.13-.95,3.35-.88.44.03.73-.24.74-.6.01-.35-.28-.62-.71-.64-.38-.01-.76-.02-1.14,0-1.54.06-2.71.98-3.07,2.47Z"/>
        <path class="cls-1" d="m11.31,16.38c.7.69,1.37,1.36,2.05,2.04-.31.3-.6.57-.93.88-.65-.66-1.32-1.35-2-2.05-.4.38-.74.74-1.11,1.06-.73.62-1.57.75-2.45.39-.86-.35-1.37-1.01-1.47-1.95-.03-.3-.12-.48-.46-.58-1.25-.39-2.04-1.57-2.12-2.99-.01-.2-.1-.43-.22-.58-.75-.91-.94-1.92-.49-2.99.46-1.11,1.36-1.7,2.55-1.76.72-.04,1.38.2,1.93.69.19.17.38.25.65.27,1.51.09,2.57.81,3.03,2.29.08.27.29.23.47.25.89.09,1.55.54,1.93,1.34.44.9.34,1.77-.29,2.55-.31.39-.69.73-1.08,1.15Zm-2.14-3.78c-.02-.3-.03-.56-.05-.81-.1-.98-.82-1.69-1.8-1.69-.6,0-1.14-.03-1.51-.58-.04-.06-.11-.1-.17-.14-.67-.45-1.85-.26-2.34.38-.41.53-.4,1.36.15,1.84.56.49.74,1.04.73,1.76-.01.88.7,1.59,1.58,1.7.29.04.58.05.91.08,0,.47-.01.92,0,1.37.03.89,1,1.42,1.72.91.41-.29.75-.69,1.18-1.09-.72-.72-1.4-1.39-2.06-2.05.27-.28.55-.57.85-.88.68.69,1.36,1.36,2.02,2.02.37-.35.74-.65,1.05-1.01.29-.34.32-.77.11-1.17-.2-.41-.54-.63-1-.63-.44,0-.88,0-1.36,0Z"/>
        <path class="cls-1" d="m21.43,23.96v2.45h-4.43v-2.48c-.86.01-1.59-.23-2.09-.92-.33-.45-.46-.96-.42-1.53.08-1.15.98-1.89,2.48-2.01.07-.73.36-1.36.99-1.79.41-.28.86-.4,1.36-.37,1.16.08,1.87.79,2.12,2.16.82,0,1.56.23,2.07.94.29.41.43.88.42,1.38-.04,1.2-.78,1.84-2.5,2.16Zm-1.29-3.18v-1.14c0-.33-.08-.63-.36-.85-.28-.22-.59-.29-.93-.14-.39.17-.58.48-.59.9-.02.4,0,.8,0,1.16-.06.04-.07.06-.08.06-.49,0-.98,0-1.47.02-.54.01-.95.41-.96.91,0,.5.44.94.98.94,1.64,0,3.29,0,4.93,0,.55,0,.99-.41,1-.92,0-.51-.42-.92-.98-.93-.49,0-.98,0-1.54,0Zm-1.86,4.34h1.86c0-.35,0-.68,0-1.01,0-.07-.08-.19-.12-.19-.58-.01-1.16,0-1.73,0v1.2Z"/>
        <path class="cls-1" d="m17.66,3.78h1.24c0,.36-.02.71,0,1.06,0,.12.1.28.19.32,1.55.65,2.16,1.73,1.93,3.45-.24,1.76-.48,3.52-.72,5.28-.15,1.11-.98,1.83-2.08,1.84-1.03,0-1.9-.78-2.04-1.86-.24-1.81-.49-3.62-.73-5.43-.24-1.77.77-2.91,1.94-3.28.09-.03.19-.2.2-.32.03-.32.02-.64.02-.96,0-.02.02-.04.04-.11Zm.58,5.06h-1.4c0,.13-.01.23,0,.32.11.8.21,1.6.32,2.41.11.76.2,1.53.33,2.29.07.38.37.59.73.6.36,0,.69-.19.76-.57.16-.83.26-1.66.39-2.54h-1.11v-1.3c.32,0,.62-.01.91,0,.26.02.41-.03.41-.35,0-.27.09-.53.1-.8.02-.52.12-1.06,0-1.56-.16-.72-.88-1.1-1.67-1.01-.62.07-1.16.57-1.25,1.21h1.46v1.29Z"/>
        <path class="cls-1" d="m3.17,21.38c1.19,0,1.77.53,1.89,1.73.04.47.3.81.59,1.16.92,1.12.9,2.66-.04,3.74-.51.58-1.17.87-1.94.93-.99.07-1.93,0-2.72-.71-1.08-.96-1.27-2.75-.34-3.86.41-.49.65-1,.71-1.65.08-.84.83-1.34,1.86-1.34Zm-.04,6.28c.13,0,.27,0,.4,0,.62,0,1.09-.3,1.35-.86.26-.56.25-1.15-.15-1.63-.52-.63-.93-1.28-.95-2.13-.01-.4-.37-.39-.67-.39-.27,0-.55.03-.56.38-.03.81-.37,1.48-.91,2.07-.37.42-.44.92-.3,1.45.21.79.75,1.12,1.79,1.12Z"/>
        <path class="cls-1" d="m29.58,12c.07,1.11-.09,2.14-.69,3.08-.41.64-.59,1.34-.55,2.1.05.94-.21,1.72-1.12,2.17-.08.04-.12.2-.12.31-.02.35,0,.71,0,1.1h-1.29c0-.37.02-.73-.01-1.1,0-.12-.11-.29-.22-.35-.56-.34-.94-.81-.99-1.46-.08-1.07-.12-2.14.32-3.15.78-1.78,2.17-2.66,4.09-2.74.17,0,.34,0,.52,0,.02,0,.04.02.09.04Zm-1.3,1.31c-1.03.28-1.69.82-2.12,1.64-.47.89-.33,1.86-.3,2.81,0,.14.19.32.33.4.37.21.81-.06.85-.51.04-.52-.02-1.07.12-1.57.18-.66.51-1.29.78-1.93.1-.25.21-.51.35-.86Z"/>
        <path class="cls-1" d="m10.34,20.13c.12,0,.25,0,.37,0,.62.02,1.17.43,1.24,1.04.22,1.85-.55,3.45-2.46,3.91-.5.12-1.05.09-1.57.05-.48-.04-.88-.48-.96-.99-.34-2.26,1.1-4.09,3.38-4.01Zm-2.11,3.73c1.63.28,2.71-.88,2.42-2.43-1.29-.22-2.66.53-2.42,2.43Z"/>
        <path class="cls-1" d="m12.29,6.28c.9-.04,1.62.27,2.02,1.12.53,1.12-.18,2.44-1.4,2.64-.59.09-1.18.11-1.73-.14-.78-.35-1.23-1.22-1.08-2.03.18-.91.87-1.52,1.83-1.59.12,0,.24,0,.37,0Zm0,2.5h0c.11,0,.22.01.33,0,.35-.03.61-.29.6-.61,0-.32-.24-.57-.58-.59-.25-.02-.51-.02-.77.01-.32.04-.48.26-.5.58-.01.32.2.57.51.61.13.02.27,0,.4,0Z"/>
        <path class="cls-1" d="m24.25,12.6c-1.12,0-1.85-.45-2.13-1.34-.35-1.1.36-2.25,1.5-2.42.72-.11,1.43-.12,2.05.33.64.47.91,1.27.7,2.03-.23.8-.88,1.32-1.75,1.39-.12,0-.25,0-.37,0Zm0-1.28v-.02c.11,0,.22,0,.33,0,.35-.03.6-.3.59-.62-.02-.31-.26-.56-.6-.58-.23-.01-.46-.02-.7,0-.34.03-.56.27-.55.6,0,.32.21.55.53.59.13.02.27.02.4.02Z"/>
        <path class="cls-1" d="m27.71,24.55v1.23h1.21v-1.23h-1.21Zm-1.3,3.74v-1.22h-1.21v1.22h1.21Z"/>
        <path class="cls-1" d="m27.71,24.55h1.21v1.23h-1.21v-1.23Z"/>
        <path class="cls-1" d="m26.42,28.3h-1.21v-1.22h1.21v1.22Z"/>
      </g>
      <g>
        <path class="cls-1" d="m6.33,34.63s0,.04,0,.06v-.11s0,.04,0,.06Z"/>
        <path class="cls-1" d="m23.19,36.46s0,0,0,.01h.1s-.07,0-.11-.01Z"/>
        <path class="cls-1" d="m28.88,22.04c-1-.08-1.78.3-2.47.99-2.29,2.3-4.59,4.59-6.87,6.89-.2.2-.4.28-.68.28-1.11-.01-2.21,0-3.32,0h-1.04c0-.13-.02-.23-.02-.33.09-2.04-1.41-3.63-3.81-3.44-.62.05-1.12.46-1.2,1.02-.1.78-.06,1.54.3,2.26.07.15.16.29.27.5h-5v4.44c0,1.73,1.4,3.12,3.12,3.12h15.12c1.73,0,3.12-1.4,3.12-3.12,0-.06,0-.12,0-.17,0,.06,0,.11,0,.17,0,0,0,0,.02,0,0-2.08,0-1.03,0-3.11,0-.31.1-.52.31-.73,1.26-1.24,2.51-2.5,3.76-3.75.57-.56.92-1.22.96-2.04.08-1.49-1.1-2.84-2.58-2.96Zm-18.13,5.71c1.55-.31,2.7.81,2.43,2.38-1.56.32-2.65-.76-2.43-2.38Zm14.41,6.65v.26c-.03,1-.87,1.8-1.87,1.8h-15.12c-1,0-1.81-.8-1.84-1.79,0-.02,0-.04,0-.06s0-.04,0-.06v-3.07h18.83v2.9Zm4.79-8.68c-.1.15-.23.29-.36.42-1.27,1.27-2.53,2.54-3.81,3.79-.14.13-.37.24-.57.24-1.25.02-2.5,0-3.75,0-.1,0-.19,0-.37-.02.1-.11.14-.16.2-.21,2.04-2.04,4.07-4.08,6.12-6.12.68-.67,1.55-.74,2.22-.2.62.51.77,1.42.32,2.09Z"/>
      </g>
    </g>
  </g>
</svg>