<?xml version="1.0" encoding="UTF-8"?>
<svg id="Calque_2" data-name="Calque 2" xmlns="http://www.w3.org/2000/svg" viewBox="0 0 41.65 21.89">
  <defs>
    <style>
      .cls-1, .cls-2 {
        fill: #fff;
      }

      .cls-2 {
        fill-rule: evenodd;
      }

      .cls-3 {
        fill: none;
      }
    </style>
  </defs>
  <g id="Mode_Isolation" data-name="Mode Isolation">
    <g>
      <g>
        <path class="cls-2" d="m18.44,5.91c-.03.19-.03.38-.1.55-.12.28-.42.42-.71.37-.29-.05-.55-.28-.55-.58-.02-.52-.22-.96-.42-1.43-.41-.97-.37-1.94.04-2.91.16-.4.27-.82.36-1.24.08-.39.37-.69.72-.67.38.03.69.34.64.74-.06.49-.12,1.01-.33,1.44-.4.85-.43,1.63,0,2.47.19.38.27.82.39,1.23-.01,0-.03.02-.04.03Z"/>
        <path class="cls-2" d="m26.68.96c-.14.44-.23.9-.43,1.32-.38.78-.4,1.52,0,2.29.25.47.36.98.37,1.5,0,.43-.25.75-.64.77-.39.02-.66-.26-.73-.69-.07-.39-.17-.79-.33-1.15-.47-1.05-.47-2.09,0-3.14.16-.36.26-.74.32-1.12.07-.44.35-.76.73-.72.4.04.66.35.64.8,0,.04,0,.08-.01.13l.08.02Z"/>
        <path class="cls-2" d="m34.88.98c-.14.43-.23.88-.43,1.29-.39.79-.37,1.53,0,2.32.21.45.29.97.36,1.47.06.43-.23.75-.61.78-.4.03-.68-.26-.75-.7-.06-.36-.14-.73-.29-1.06-.51-1.11-.51-2.19,0-3.3.15-.32.23-.68.29-1.03.07-.45.34-.76.72-.74.41.03.67.36.65.83,0,.04,0,.08-.01.13.03,0,.05.02.08.02Z"/>
      </g>
      <g>
        <path class="cls-3" d="m2.36,3.07s-.04-.05-.07-.07l-.04-.04s0,0-.03,0c-.04-.03-.09-.04-.14-.05,0,0-.01,0-.02,0-.01,0-.03,0-.04,0,0,0-.01,0-.02.01-.03.02-.06.05-.09.09-.03.04-.06.08-.08.13,0,.02,0,.05-.01.07,0-.02,0-.05.01-.07.01-.04.03-.08.06-.11,0,0,.01,0,.02-.02.03-.04.06-.06.09-.09,0,0,0,0,.01-.01,0,0-.01,0-.02,0,0,0,0,0-.02,0,0,0-.01,0-.02,0-.03,0-.08,0-.14.04-.13.05-.23.16-.28.3,0,.02,0,.04-.01.07,0,.03-.02.05-.02.08,0,.15.07.29.18.38.09.12.18.2.19.2l1.18,1.1,9.32,8.67-1.48,1.4,1.1,1.18h1.75l-.18-1.46.36-.36L3.69,4.39l-1.33-1.31Z"/>
        <path class="cls-1" d="m40.71,16.38c-.62.02-1.23,0-1.86,0,.35-2.05-.99-3.72-2.75-4.02-.22-.04-.35-.13-.48-.31-.62-.82-1.46-1.2-2.48-1.1-.25.02-.38-.02-.54-.2-1.02-1.16-2.69-1.49-4.08-.85-.11.05-.28.03-.41,0-.45-.1-.9-.27-1.35-.31-.77-.06-1.47.2-2.12.63-.74-.59-1.48-1.19-2.22-1.78-.47-.38-.83-.34-1.21.12-.35.44-.71.88-1.06,1.32-.46.58-.93,1.15-1.42,1.77-.1-.12-.17-.21-.25-.3-.6-.6-.86-.6-1.46,0-.68.68-1.36,1.36-2.04,2.04L3.48,2.08l-.21-.2s-.05-.04-.07-.06c-.14-.11-.6-.42-1.24-.43-.26,0-.52.06-.75.15-.26.11-.54.3-.79.62-.09.11-.15.22-.21.34-.11.22-.18.47-.2.74,0,.06-.01.12,0,.17H0c.03.54.29,1.03.6,1.39.09.1.18.19.27.27l9.31,8.66-1.4,1.33,1.23,1.33c-.07,0-.13,0-.2,0-.42-.01-.75.11-.94.51v.77c.14.46.22.94.42,1.36.9,1.88,2.42,2.85,4.51,2.85,6.11.02,12.22,0,18.34,0,1.56,0,3.12.02,4.67,0,2.06-.04,3.56-.99,4.44-2.85.2-.42.28-.91.42-1.36v-.77c-.19-.4-.52-.52-.94-.51Zm-15.85-4.43c.63-1,2.06-1.29,3-.58.35.27.68.17,1.03-.05.88-.56,1.93-.43,2.65.31.1.11.19.23.26.36.36.57.55.64,1.19.41.59-.21,1.22,0,1.57.52.04.05.07.11.09.17.15.4.46.56.87.59,1.13.08,1.88.78,2.02,1.89,0,.07.01.15,0,.22-.05.58-.06.58-.64.58h-16.38c-.01-.62.39-1.14.98-1.29.13-.03.28-.04.41-.07.33-.06.53-.23.6-.57.09-.38.15-.78.32-1.12.28-.57.8-.84,1.41-1,.23-.06.5-.2.62-.38Zm-2.9-2.1c.52.42,1.03.83,1.57,1.26-.24.12-.46.21-.66.32-.81.46-1.35,1.13-1.59,2.03-.11.4-.26.44-.55.15-.33-.32-.66-.64-1-.97.76-.95,1.49-1.86,2.23-2.79Zm-4.17,2.84c.61.6,1.28,1.26,1.89,1.87-.23.59-.45,1.16-.69,1.79h-4.88c1.22-1.21,2.46-2.45,3.68-3.67ZM2.55,2.87l.04.04s-.04-.04-.07-.05c.02.01.04.02.03,0Zm.5,2.19l-1.18-1.1s-.09-.08-.19-.2c-.11-.09-.18-.22-.18-.38,0-.03.01-.05.02-.08,0-.02,0-.04.01-.07.04-.14.14-.25.28-.3.07-.03.12-.04.14-.04,0,0,.01,0,.02,0,0,0,0,0,.02,0,0,0,.02,0,.02,0,.04-.03.07-.05.1-.06.07-.04.12-.04.14-.04,0,0,.01,0,.02,0,0,0,0,0,.02,0,.02,0,.04,0,.07.01-.03,0-.05,0-.08-.01-.06,0-.12.01-.17.04-.04.01-.06.04-.09.06.01,0,.03,0,.04,0,0,0,.01,0,.02,0,.05,0,.1.02.14.05.02,0,.04.02.03,0l.04.04s.05.04.07.07l1.33,1.31,10.23,10.09c-.56.56-1.12,1.12-1.67,1.68-.07.07-.14.11-.21.15h-.06l-1.1-1.18,1.48-1.4L3.05,5.05Zm34.89,15.24c-.37.12-.77.18-1.16.18-7.68,0-15.37,0-23.04,0-1.65,0-2.97-1-3.38-2.54,0-.04,0-.08-.02-.14h.99s2.59,0,2.59,0h0c8.76,0,17.51,0,26.29,0-.32,1.25-1.06,2.1-2.26,2.5Z"/>
        <path class="cls-1" d="m2.29,2.79s0,0-.02,0c.03,0,.05,0,.08.01-.02,0-.04-.01-.07-.01Z"/>
        <path class="cls-1" d="m1.99,2.91s.01,0,.02-.01h0s0,0-.01.01Z"/>
        <path class="cls-1" d="m1.91,3s.06-.07.09-.09c-.03.03-.06.06-.09.09Z"/>
        <path class="cls-1" d="m1.83,3.13s.05-.09.08-.13c0,0-.01,0-.02.02-.03.04-.04.07-.06.11Z"/>
        <path class="cls-1" d="m2.11,2.83s-.06.04-.1.06h0s.06-.05.09-.06Z"/>
        <path class="cls-1" d="m2.55,2.87s0,0-.03,0c.03.01.05.03.07.05l-.04-.04Z"/>
        <path class="cls-1" d="m2.25,2.79s-.08,0-.14.04c.05-.02.11-.03.17-.04,0,0-.01,0-.02,0Z"/>
      </g>
    </g>
  </g>
</svg>