<?xml version="1.0" encoding="UTF-8"?>
<svg id="Calque_2" data-name="Calque 2" xmlns="http://www.w3.org/2000/svg" viewBox="0 0 62.14 61.8">
  <defs>
    <style>
      .cls-1 {
        fill: #fff;
        fill-rule: evenodd;
      }
    </style>
  </defs>
  <g id="Mode_Isolation" data-name="Mode Isolation">
    <g>
      <path class="cls-1" d="m11.43,46.89c1.04.14,2.02.28,2.99.42.39-.93.54-1.04,1.61-1.04,9.04,0,18.07,0,27.1,0,.39,0,.64-.12.96-.37.41-.32.97-.64,1.48-.64,4.85-.05,9.7-.04,14.55-.03,1.12,0,2,.89,2.01,2.02.02,1.42.02,2.85,0,4.27-.01,1.09-.89,1.98-1.98,1.99-4.9.01-9.79.02-14.69-.02-.44,0-.98-.26-1.31-.57-.37-.36-.72-.47-1.19-.44-.49.03-.98,0-1.51,0v-2.04h2v-2.06h-26.71c-.11,2.47,2.63,5.94,5.12,6.58,0-.79-.15-1.62.03-2.39.63-2.78,3.7-4.06,6.14-2.6.35.21.57.19.91,0,1.42-.82,2.86-.79,4.3,0,.2.11.54.16.72.06,1.78-.98,3.65-.85,5.04.39,1.37,1.22,1.74,3.04.98,4.9-.02.06-.04.12-.08.24.2.01.38.04.56.04,2.03,0,4.05,0,6.08,0,1.81,0,3.16,1.35,3.15,3.13,0,1.74-1.37,3.08-3.15,3.08-14.42,0-28.85,0-43.28,0-1.68,0-2.98-1.04-3.24-2.57-.26-1.53.58-2.91,2.12-3.5.06-.02.12-.05.21-.09-.22-.71-.26-1.39-1-1.93-1.69-1.23-1.83-3.65-.42-5.2.25-.27.31-.49.22-.84-.38-1.45.14-3,1.39-3.81.5-.33.59-.66.58-1.19-.03-1.82,1.26-3.32,3.05-3.62,1.66-.28,3.41.7,3.93,2.35.21.67.14,1.43.12,2.14-.01.31-.05.53.2.79.68.69.98,1.55.98,2.55Zm-1.27,12.84h35.86c1.09,0,1.63-.35,1.61-1.06-.02-.68-.54-1.01-1.58-1.01H10.46c-.1.71-.19,1.37-.29,2.07Zm35.46-12.39v4.06h14.41v-4.06h-14.41Zm-27.03,8.25c-.24-.21-.36-.32-.48-.43-1.4-1.21-2.49-2.66-2.99-4.43-.29-1.02-.75-1.46-1.76-1.46-.9,0-1.83-.21-2.68-.04-1.53.32-2.55,1.95-2.35,3.41.24,1.73,1.55,2.91,3.3,2.95,1.55.03,3.1,0,4.65,0h2.31Zm-11.86-5.65c.26-.37.49-.76.79-1.1.31-.35.67-.67,1.05-.95,1.04-.74,1-1.86-.12-2.49-.89-.51-1.02-.99-.48-1.82.48-.75.42-1.49-.16-2.05-.57-.54-1.39-.57-2-.09-.62.5-.75,1.26-.34,2.03.53.99.22,1.61-.87,1.77-1.26.19-1.82,1.38-1.14,2.45.56.88.45,1.32-.49,1.86-.68.39-.98,1.05-.79,1.73.2.71.82,1.2,1.51,1.18.74-.02,1.35-.57,1.5-1.36.21-1.11.46-1.3,1.55-1.18Zm29.54,5.64c1.1,0,2.06-.99,2.05-2.08-.01-1.1-.98-2.06-2.08-2.05-1.09,0-2.07,1-2.05,2.08.02,1.11.99,2.06,2.08,2.05Zm-32.07-.89c.36.28.67.57,1.02.79.66.41.82.98.41,1.63-.12.2-.25.4-.33.62-.24.65,0,1.19.49,1.61.49.42,1.05.47,1.63.2.54-.26.97-.91.87-1.46-.13-.68-.25-1.39-.55-2-.43-.87-1.02-1.65-1.53-2.45-.56.3-1.19.63-2,1.06Zm21.81.89c.08-.02.27-.06.46-.1.54-.12.75-.34.62-.98-.14-.67-.1-1.41.02-2.09.08-.46-.04-.62-.4-.77-.78-.33-1.68-.18-2.26.44-.6.63-.77,1.37-.46,2.2.29.76,1.1,1.31,2.02,1.31Zm3-2.04c.03,1.47,1.56,2.43,2.9,1.84.34-.15.43-.3.37-.72-.11-.75-.11-1.54,0-2.29.06-.42-.03-.57-.36-.73-1.36-.61-2.93.41-2.91,1.9Zm-25.62,6.14c-.09-.35-.2-.66-.24-.97-.04-.33,0-.67,0-1.02-.73.16-1.09.54-1.04,1.07.05.59.5.93,1.29.93Z"/>
      <path class="cls-1" d="m58.02,43.17h-2.06v-16.56c-1.07,0-2.08,0-3.08,0-1.62,0-2.98-1.15-3.15-2.67-.19-1.65.8-3.17,2.42-3.46.92-.16,1.89-.06,2.84-.08.3,0,.59,0,.91,0v-.99h-31v24.75h-2.08v-17.56c-1.35.12-2.57-.02-3.46-1.1-.52-.65-.76-1.39-.7-2.22.08-1.01.51-1.9,1.4-2.33.8-.39,1.73-.5,2.72-.76.05-.37.13-.81-.62-1.1-1.1-.42-1.65-1.69-1.41-2.84.25-1.18,1.29-2.04,2.5-2.04,11.43,0,22.86,0,34.29,0,1.18,0,2.19.83,2.47,1.99.27,1.12-.26,2.43-1.34,2.87-.69.28-.78.67-.62,1.35h1c1.75.02,3.09,1.38,3.08,3.14,0,1.71-1.36,3.06-3.08,3.07-.32,0-.64,0-1.04,0v16.56Zm-17.61-25.88h16.49c.19,0,.42.06.57-.02.2-.1.47-.32.47-.49,0-.17-.26-.38-.46-.5-.13-.08-.34-.02-.51-.02-11.06,0-22.11,0-33.17,0-.17,0-.38-.06-.51.02-.19.12-.42.33-.44.52-.02.14.24.37.43.46.16.08.38.03.57.03,5.52,0,11.04,0,16.55,0Zm15.54,7.25c.97,0,1.94.01,2.91,0,.71,0,1.18-.42,1.21-1,.02-.6-.48-1.06-1.21-1.06-1.94,0-3.88,0-5.82,0-.75,0-1.24.43-1.24,1.04,0,.6.49,1.02,1.24,1.03.97.01,1.94,0,2.91,0Zm-33.17-2.06c-.74.02-1.51-.21-1.89.58-.13.27-.09.75.07,1.01.44.67,1.15.47,1.82.44v-2.02Z"/>
      <path class="cls-1" d="m31.89,10.26c-.59.6-1.04,1.05-1.49,1.51-2.64-1.86-2.96-4.66-1.04-6.68.71-.75.65-1.81-.06-2.57-.32-.35-.69-.65-1.07-.99.56-.52,1.04-.97,1.53-1.43,2.53,1.78,2.92,4.57.97,6.63-.71.76-.66,1.81.06,2.57.32.34.71.63,1.09.96Z"/>
      <path class="cls-1" d="m38.46,1.45c.32-.25.51-.36.66-.51.3-.3.58-.63.86-.94,2.68,1.86,3.03,4.64,1.16,6.67-.76.82-.71,1.86.05,2.67.31.33.65.62,1,.96-.54.5-1.02.94-1.52,1.4-2.56-1.79-2.86-4.57-1.01-6.56.76-.82.72-1.87-.05-2.67-.31-.32-.67-.6-1.15-1.02Z"/>
      <path class="cls-1" d="m52.59,10.28c-.57.56-1.03,1.02-1.48,1.47-2.61-1.79-2.96-4.59-1.09-6.61.76-.82.72-1.87-.05-2.67-.31-.32-.67-.6-1.04-.93.59-.52,1.08-.96,1.59-1.41,2.46,1.68,2.87,4.48.98,6.53-.78.84-.72,1.88.09,2.72.3.31.64.57,1.01.9Z"/>
    </g>
  </g>
</svg>